<mxfile host="app.diagrams.net" modified="2023-10-30T16:49:07.984Z" agent="Mozilla/5.0 (Windows NT 10.0; Win64; x64; rv:109.0) Gecko/20100101 Firefox/119.0" etag="wTHuySWxX36C_owzVCNT" version="22.0.8" type="github">
  <diagram name="PÃ¡gina-1" id="ybt0zRq6p9f624YoCL18">
    <mxGraphModel dx="2074" dy="726" grid="1" gridSize="10" guides="1" tooltips="1" connect="1" arrows="1" fold="1" page="1" pageScale="1" pageWidth="827" pageHeight="1169" math="0" shadow="0">
      <root>
        <mxCell id="0" />
        <mxCell id="1" parent="0" />
        <mxCell id="Hu7f5nHHjTMGc1jHVOSL-18" style="edgeStyle=orthogonalEdgeStyle;rounded=0;orthogonalLoop=1;jettySize=auto;html=1;curved=1;" edge="1" parent="1" source="Hu7f5nHHjTMGc1jHVOSL-2" target="Hu7f5nHHjTMGc1jHVOSL-10">
          <mxGeometry relative="1" as="geometry" />
        </mxCell>
        <object placeholders="1" c4Name="PokemonTrainer" c4Type="API" c4Technology="Spring Service" c4Description="MaganerTrainer" label="&lt;font style=&quot;font-size: 16px&quot;&gt;&lt;b&gt;%c4Name%&lt;/b&gt;&lt;/font&gt;&lt;div&gt;[%c4Type%: %c4Technology%]&lt;/div&gt;&lt;br&gt;&lt;div&gt;&lt;font style=&quot;font-size: 11px&quot;&gt;%c4Description%&lt;/font&gt;&lt;/div&gt;" id="Hu7f5nHHjTMGc1jHVOSL-2">
          <mxCell style="rounded=1;whiteSpace=wrap;html=1;labelBackgroundColor=none;fillColor=#e1d5e7;align=center;arcSize=6;strokeColor=#9673a6;metaEdit=1;resizable=0;points=[[0.25,0,0],[0.5,0,0],[0.75,0,0],[1,0.25,0],[1,0.5,0],[1,0.75,0],[0.75,1,0],[0.5,1,0],[0.25,1,0],[0,0.75,0],[0,0.5,0],[0,0.25,0]];" vertex="1" parent="1">
            <mxGeometry x="280" y="330" width="240" height="120" as="geometry" />
          </mxCell>
        </object>
        <object placeholders="1" c4Name="PokemonOauth" c4Type="API" c4Technology="Spring Service" c4Description="Maganer Security" label="&lt;font style=&quot;font-size: 16px&quot;&gt;&lt;b&gt;%c4Name%&lt;/b&gt;&lt;/font&gt;&lt;div&gt;[%c4Type%: %c4Technology%]&lt;/div&gt;&lt;br&gt;&lt;div&gt;&lt;font style=&quot;font-size: 11px&quot;&gt;%c4Description%&lt;/font&gt;&lt;/div&gt;" id="Hu7f5nHHjTMGc1jHVOSL-3">
          <mxCell style="rounded=1;whiteSpace=wrap;html=1;labelBackgroundColor=none;fillColor=#e1d5e7;align=center;arcSize=6;strokeColor=#9673a6;metaEdit=1;resizable=0;points=[[0.25,0,0],[0.5,0,0],[0.75,0,0],[1,0.25,0],[1,0.5,0],[1,0.75,0],[0.75,1,0],[0.5,1,0],[0.25,1,0],[0,0.75,0],[0,0.5,0],[0,0.25,0]];" vertex="1" parent="1">
            <mxGeometry x="280" y="150" width="240" height="120" as="geometry" />
          </mxCell>
        </object>
        <mxCell id="Hu7f5nHHjTMGc1jHVOSL-20" style="edgeStyle=orthogonalEdgeStyle;rounded=0;orthogonalLoop=1;jettySize=auto;html=1;curved=1;" edge="1" parent="1" source="Hu7f5nHHjTMGc1jHVOSL-4" target="Hu7f5nHHjTMGc1jHVOSL-16">
          <mxGeometry relative="1" as="geometry" />
        </mxCell>
        <mxCell id="Hu7f5nHHjTMGc1jHVOSL-21" style="edgeStyle=orthogonalEdgeStyle;rounded=0;orthogonalLoop=1;jettySize=auto;html=1;curved=1;" edge="1" parent="1" source="Hu7f5nHHjTMGc1jHVOSL-4" target="Hu7f5nHHjTMGc1jHVOSL-10">
          <mxGeometry relative="1" as="geometry" />
        </mxCell>
        <object placeholders="1" c4Name="PokemonFree" c4Type="Batch" c4Technology="Spring Service" c4Description="Maganer Pokemon" label="&lt;font style=&quot;font-size: 16px&quot;&gt;&lt;b&gt;%c4Name%&lt;/b&gt;&lt;/font&gt;&lt;div&gt;[%c4Type%: %c4Technology%]&lt;/div&gt;&lt;br&gt;&lt;div&gt;&lt;font style=&quot;font-size: 11px&quot;&gt;%c4Description%&lt;/font&gt;&lt;/div&gt;" id="Hu7f5nHHjTMGc1jHVOSL-4">
          <mxCell style="rounded=1;whiteSpace=wrap;html=1;labelBackgroundColor=none;fillColor=#e1d5e7;align=center;arcSize=6;strokeColor=#9673a6;metaEdit=1;resizable=0;points=[[0.25,0,0],[0.5,0,0],[0.75,0,0],[1,0.25,0],[1,0.5,0],[1,0.75,0],[0.75,1,0],[0.5,1,0],[0.25,1,0],[0,0.75,0],[0,0.5,0],[0,0.25,0]];" vertex="1" parent="1">
            <mxGeometry x="280" y="510" width="240" height="120" as="geometry" />
          </mxCell>
        </object>
        <mxCell id="Hu7f5nHHjTMGc1jHVOSL-10" value="" style="outlineConnect=0;dashed=0;verticalLabelPosition=bottom;verticalAlign=top;align=center;html=1;shape=mxgraph.aws3.mysql_db_instance;fillColor=#e1d5e7;strokeColor=#9673a6;" vertex="1" parent="1">
          <mxGeometry x="690" y="350" width="80" height="80" as="geometry" />
        </mxCell>
        <mxCell id="Hu7f5nHHjTMGc1jHVOSL-13" value="&lt;font style=&quot;font-size: 10px;&quot;&gt;Private Key&lt;/font&gt;" style="shadow=0;dashed=0;html=1;strokeColor=none;fillColor=#4495D1;labelPosition=center;verticalLabelPosition=bottom;verticalAlign=top;align=center;outlineConnect=0;shape=mxgraph.veeam.2d.private_key;" vertex="1" parent="1">
          <mxGeometry x="470" y="223" width="30" height="25.4" as="geometry" />
        </mxCell>
        <mxCell id="Hu7f5nHHjTMGc1jHVOSL-14" value="&lt;font style=&quot;font-size: 10px;&quot;&gt;Public Key&lt;/font&gt;" style="shadow=0;dashed=0;html=1;strokeColor=none;fillColor=#4495D1;labelPosition=center;verticalLabelPosition=bottom;verticalAlign=top;align=center;outlineConnect=0;shape=mxgraph.veeam.2d.private_key;" vertex="1" parent="1">
          <mxGeometry x="470" y="402.6" width="30" height="25.4" as="geometry" />
        </mxCell>
        <mxCell id="Hu7f5nHHjTMGc1jHVOSL-15" value="" style="image;aspect=fixed;html=1;points=[];align=center;fontSize=12;image=img/lib/azure2/general/Scheduler.svg;" vertex="1" parent="1">
          <mxGeometry x="476" y="594" width="24" height="24" as="geometry" />
        </mxCell>
        <object placeholders="1" c4Name="PokeAPI" c4Type="API" c4Technology="External" c4Description="Pokemon Provider" label="&lt;font style=&quot;font-size: 16px&quot;&gt;&lt;b&gt;%c4Name%&lt;/b&gt;&lt;/font&gt;&lt;div&gt;[%c4Type%: %c4Technology%]&lt;/div&gt;&lt;br&gt;&lt;div&gt;&lt;font style=&quot;font-size: 11px&quot;&gt;%c4Description%&lt;/font&gt;&lt;/div&gt;" id="Hu7f5nHHjTMGc1jHVOSL-16">
          <mxCell style="rounded=1;whiteSpace=wrap;html=1;labelBackgroundColor=none;fillColor=#e1d5e7;align=center;arcSize=6;strokeColor=#9673a6;metaEdit=1;resizable=0;points=[[0.25,0,0],[0.5,0,0],[0.75,0,0],[1,0.25,0],[1,0.5,0],[1,0.75,0],[0.75,1,0],[0.5,1,0],[0.25,1,0],[0,0.75,0],[0,0.5,0],[0,0.25,0]];" vertex="1" parent="1">
            <mxGeometry x="280" y="680" width="240" height="120" as="geometry" />
          </mxCell>
        </object>
        <mxCell id="Hu7f5nHHjTMGc1jHVOSL-26" value="Server 1" style="swimlane;whiteSpace=wrap;html=1;fillColor=#e1d5e7;strokeColor=#9673a6;" vertex="1" parent="1">
          <mxGeometry x="280" y="130" width="240" height="140" as="geometry" />
        </mxCell>
        <mxCell id="Hu7f5nHHjTMGc1jHVOSL-27" value="Server 2" style="swimlane;whiteSpace=wrap;html=1;fillColor=#e1d5e7;strokeColor=#9673a6;" vertex="1" parent="1">
          <mxGeometry x="280" y="310" width="240" height="140" as="geometry" />
        </mxCell>
        <mxCell id="Hu7f5nHHjTMGc1jHVOSL-34" value="&lt;font style=&quot;font-size: 11px;&quot;&gt;Request Log&lt;/font&gt;" style="sketch=0;outlineConnect=0;fontColor=#232F3E;gradientColor=none;fillColor=#8C4FFF;strokeColor=none;dashed=0;verticalLabelPosition=bottom;verticalAlign=top;align=center;html=1;fontSize=12;fontStyle=0;aspect=fixed;pointerEvents=1;shape=mxgraph.aws4.flow_logs;" vertex="1" parent="Hu7f5nHHjTMGc1jHVOSL-27">
          <mxGeometry x="21" y="91.30000000000001" width="28" height="28" as="geometry" />
        </mxCell>
        <mxCell id="Hu7f5nHHjTMGc1jHVOSL-29" value="Server 3" style="swimlane;whiteSpace=wrap;html=1;fillColor=#e1d5e7;strokeColor=#9673a6;" vertex="1" parent="1">
          <mxGeometry x="280" y="490" width="240" height="140" as="geometry" />
        </mxCell>
      </root>
    </mxGraphModel>
  </diagram>
</mxfile>
